<svg xmlns="http://www.w3.org/2000/svg" viewBox="0 0 256 256" role="img" aria-labelledby="title desc">
  <title id="title">McGuire Technology app icon</title>
  <desc id="desc">Rounded square app icon using the routed M mark.</desc>
  <rect width="256" height="256" rx="44" fill="#030303"/>
  <rect x="1" y="1" width="254" height="254" rx="43" fill="none" stroke="#334155" stroke-opacity=".45" stroke-width="2"/>
  <g transform="translate(22 63) scale(.76)" fill="none" stroke-linecap="round" stroke-linejoin="round" stroke-width="14">
    <path d="M24 28H82C96 28 105 45 118 56C131 67 143 67 156 56C169 45 178 28 192 28H236" stroke="#2563EB"/>
    <path d="M24 52H76C92 52 103 68 118 80C131 91 144 91 158 80C173 68 184 52 200 52H236" stroke="#0EA5E9"/>
    <path d="M24 76H72C90 76 102 91 118 104C132 116 145 116 160 104C176 91 188 76 206 76H236" stroke="#64748B"/>
    <path d="M24 100H68C88 100 101 115 118 126C132 136 146 136 162 126C179 115 192 100 212 100H236" stroke="#334155"/>
  </g>
  <g transform="translate(22 63) scale(.76)">
    <rect x="250" y="20" width="18" height="18" rx="4" fill="#2563EB"/>
    <rect x="250" y="44" width="18" height="18" rx="4" fill="#0EA5E9"/>
    <rect x="250" y="68" width="18" height="18" rx="4" fill="#64748B"/>
    <rect x="250" y="92" width="18" height="18" rx="4" fill="#334155"/>
  </g>
</svg>
