<svg xmlns="http://www.w3.org/2000/svg" viewBox="0 0 1440 1800" role="img" aria-labelledby="title desc">
  <title id="title">McGuire Technology brand system board</title>
  <desc id="desc">A brand board showing the McGuire Technology logo, icon variations, palette, typography, signage, and dashboard examples.</desc>
  <rect width="1440" height="1800" fill="#F4F0EA"/>
  <rect width="1440" height="560" fill="#030303"/>
  <g transform="translate(156 190) scale(1.4)">
    <g fill="none" stroke-linecap="round" stroke-linejoin="round" stroke-width="14">
      <path d="M24 28H82C96 28 105 45 118 56C131 67 143 67 156 56C169 45 178 28 192 28H236" stroke="#2563EB"/>
      <path d="M24 52H76C92 52 103 68 118 80C131 91 144 91 158 80C173 68 184 52 200 52H236" stroke="#0EA5E9"/>
      <path d="M24 76H72C90 76 102 91 118 104C132 116 145 116 160 104C176 91 188 76 206 76H236" stroke="#ECE7DE"/>
      <path d="M24 100H68C88 100 101 115 118 126C132 136 146 136 162 126C179 115 192 100 212 100H236" stroke="#F4F0EA"/>
    </g>
    <rect x="250" y="20" width="18" height="18" rx="4" fill="#2563EB"/>
    <rect x="250" y="44" width="18" height="18" rx="4" fill="#0EA5E9"/>
    <rect x="250" y="68" width="18" height="18" rx="4" fill="#ECE7DE"/>
    <rect x="250" y="92" width="18" height="18" rx="4" fill="#F4F0EA"/>
  </g>
  <text x="620" y="315" fill="#F5F3EE" font-family="Ubuntu Sans, Ubuntu, Arial, sans-serif" font-size="82" font-weight="700" letter-spacing="-1">McGuire Technology</text>
  <text x="622" y="382" fill="#0EA5E9" font-family="Ubuntu Mono, monospace" font-size="28" letter-spacing="8">OPERATIONAL CLARITY</text>

  <text x="72" y="638" fill="#111827" font-family="Ubuntu Mono, monospace" font-size="18" font-weight="700">ICON VARIATIONS</text>
  <g transform="translate(72 690)">
    <rect width="160" height="160" rx="28" fill="#030303"/>
    <g transform="translate(16 48) scale(.46)">
      <g fill="none" stroke-linecap="round" stroke-linejoin="round" stroke-width="14">
        <path d="M24 28H82C96 28 105 45 118 56C131 67 143 67 156 56C169 45 178 28 192 28H236" stroke="#2563EB"/>
        <path d="M24 52H76C92 52 103 68 118 80C131 91 144 91 158 80C173 68 184 52 200 52H236" stroke="#0EA5E9"/>
        <path d="M24 76H72C90 76 102 91 118 104C132 116 145 116 160 104C176 91 188 76 206 76H236" stroke="#ECE7DE"/>
        <path d="M24 100H68C88 100 101 115 118 126C132 136 146 136 162 126C179 115 192 100 212 100H236" stroke="#F4F0EA"/>
      </g>
    </g>
  </g>
  <g transform="translate(300 724) scale(.62)">
    <g fill="none" stroke-linecap="round" stroke-linejoin="round" stroke-width="14">
      <path d="M24 28H82C96 28 105 45 118 56C131 67 143 67 156 56C169 45 178 28 192 28H236" stroke="#2563EB"/>
      <path d="M24 52H76C92 52 103 68 118 80C131 91 144 91 158 80C173 68 184 52 200 52H236" stroke="#0EA5E9"/>
      <path d="M24 76H72C90 76 102 91 118 104C132 116 145 116 160 104C176 91 188 76 206 76H236" stroke="#A16207"/>
      <path d="M24 100H68C88 100 101 115 118 126C132 136 146 136 162 126C179 115 192 100 212 100H236" stroke="#C2410C"/>
    </g>
  </g>
  <g transform="translate(530 714)">
    <circle cx="82" cy="82" r="82" fill="#030303"/>
    <g transform="translate(14 48) scale(.48)" fill="none" stroke="#F5F3EE" stroke-linecap="round" stroke-linejoin="round" stroke-width="14">
      <path d="M24 28H82C96 28 105 45 118 56C131 67 143 67 156 56C169 45 178 28 192 28H236"/>
      <path d="M24 52H76C92 52 103 68 118 80C131 91 144 91 158 80C173 68 184 52 200 52H236"/>
      <path d="M24 76H72C90 76 102 91 118 104C132 116 145 116 160 104C176 91 188 76 206 76H236"/>
      <path d="M24 100H68C88 100 101 115 118 126C132 136 146 136 162 126C179 115 192 100 212 100H236"/>
    </g>
  </g>

  <text x="760" y="638" fill="#111827" font-family="Ubuntu Mono, monospace" font-size="18" font-weight="700">COLOR PALETTE</text>
  <g transform="translate(760 694)" font-family="Ubuntu Mono, monospace" font-size="13" fill="#111827">
    <rect width="70" height="70" rx="8" fill="#030303"/><text y="104">#030303</text>
    <rect x="102" width="70" height="70" rx="8" fill="#0A0A0A"/><text x="102" y="104">#0A0A0A</text>
    <rect x="204" width="70" height="70" rx="8" fill="#ECE7DE"/><text x="204" y="104">#ECE7DE</text>
    <rect x="306" width="70" height="70" rx="8" fill="#F4F0EA"/><text x="306" y="104">#F4F0EA</text>
    <rect x="408" width="70" height="70" rx="8" fill="#2563EB"/><text x="408" y="104">#2563EB</text>
    <rect x="510" width="70" height="70" rx="8" fill="#0EA5E9"/><text x="510" y="104">#0EA5E9</text>
    <rect y="104" width="70" height="70" rx="8" fill="#16A34A"/><text y="198">#16A34A</text>
    <rect x="102" y="104" width="70" height="70" rx="8" fill="#F59E0B"/><text x="102" y="198">#F59E0B</text>
    <rect x="204" y="104" width="70" height="70" rx="8" fill="#EF4444"/><text x="204" y="198">#EF4444</text>
    <rect x="306" y="104" width="70" height="70" rx="8" fill="#A16207"/><text x="306" y="198">#A16207</text>
    <rect x="408" y="104" width="70" height="70" rx="8" fill="#C2410C"/><text x="408" y="198">#C2410C</text>
  </g>
  <text x="760" y="928" fill="#111827" font-family="Ubuntu Mono, monospace" font-size="18" font-weight="700">TYPOGRAPHY</text>
  <text x="760" y="1028" fill="#111827" font-family="Ubuntu Sans, Ubuntu, Arial, sans-serif" font-size="118" font-weight="700">Aa</text>
  <text x="946" y="990" fill="#111827" font-family="Ubuntu Sans, Ubuntu, Arial, sans-serif" font-size="34" font-weight="700">Ubuntu Sans</text>
  <text x="946" y="1030" fill="#695F53" font-family="Ubuntu Mono, monospace" font-size="18">ABCDEFGHIJKLMNOPQRSTUVWXYZ</text>
  <text x="946" y="1064" fill="#695F53" font-family="Ubuntu Mono, monospace" font-size="18">abcdefghijklmnopqrstuvwxyz</text>
  <text x="946" y="1098" fill="#695F53" font-family="Ubuntu Mono, monospace" font-size="18">0123456789</text>

  <g transform="translate(0 110)">
  <text x="72" y="1082" fill="#111827" font-family="Ubuntu Mono, monospace" font-size="18" font-weight="700">APPLICATION EXAMPLE - SIGNAGE</text>
  <rect x="72" y="1120" width="620" height="500" rx="12" fill="#202020"/>
  <g opacity=".18" stroke="#F4F0EA"><path d="M72 1280H692M272 1120V1620M486 1120V1620"/></g>
  <g transform="translate(126 1326) scale(.75)">
    <g fill="none" stroke-linecap="round" stroke-linejoin="round" stroke-width="14">
      <path d="M24 28H82C96 28 105 45 118 56C131 67 143 67 156 56C169 45 178 28 192 28H236" stroke="#2563EB"/>
      <path d="M24 52H76C92 52 103 68 118 80C131 91 144 91 158 80C173 68 184 52 200 52H236" stroke="#0EA5E9"/>
      <path d="M24 76H72C90 76 102 91 118 104C132 116 145 116 160 104C176 91 188 76 206 76H236" stroke="#ECE7DE"/>
      <path d="M24 100H68C88 100 101 115 118 126C132 136 146 136 162 126C179 115 192 100 212 100H236" stroke="#F4F0EA"/>
    </g>
  </g>
  <text x="380" y="1400" fill="#F5F3EE" font-family="Ubuntu Sans, Ubuntu, Arial, sans-serif" font-size="58" font-weight="700">McGuire</text>
  <text x="380" y="1464" fill="#F5F3EE" font-family="Ubuntu Sans, Ubuntu, Arial, sans-serif" font-size="58" font-weight="700">Technology</text>

  <text x="748" y="1082" fill="#111827" font-family="Ubuntu Mono, monospace" font-size="18" font-weight="700">APPLICATION EXAMPLE - DASHBOARD</text>
  <rect x="748" y="1120" width="620" height="500" rx="12" fill="#03080D"/>
  <rect x="748" y="1120" width="160" height="500" rx="12" fill="#030303"/>
  <text x="934" y="1184" fill="#F5F3EE" font-family="Ubuntu Sans, Ubuntu, Arial, sans-serif" font-size="28" font-weight="700">Operational Overview</text>
  <g transform="translate(780 1156) scale(.23)">
    <g fill="none" stroke-linecap="round" stroke-linejoin="round" stroke-width="16">
      <path d="M24 28H82C96 28 105 45 118 56C131 67 143 67 156 56C169 45 178 28 192 28H236" stroke="#2563EB"/>
      <path d="M24 52H76C92 52 103 68 118 80C131 91 144 91 158 80C173 68 184 52 200 52H236" stroke="#0EA5E9"/>
      <path d="M24 76H72C90 76 102 91 118 104C132 116 145 116 160 104C176 91 188 76 206 76H236" stroke="#ECE7DE"/>
      <path d="M24 100H68C88 100 101 115 118 126C132 136 146 136 162 126C179 115 192 100 212 100H236" stroke="#F4F0EA"/>
    </g>
  </g>
  <g font-family="Ubuntu Sans, Ubuntu, Arial, sans-serif">
    <rect x="934" y="1230" width="120" height="84" rx="10" fill="#101923"/><text x="950" y="1262" fill="#CBD5E1" font-size="14">Sources</text><text x="950" y="1300" fill="#F8FAFC" font-size="32" font-weight="700">126</text>
    <rect x="1074" y="1230" width="120" height="84" rx="10" fill="#101923"/><text x="1090" y="1262" fill="#CBD5E1" font-size="14">Pipelines</text><text x="1090" y="1300" fill="#F8FAFC" font-size="32" font-weight="700">23</text>
    <rect x="1214" y="1230" width="120" height="84" rx="10" fill="#101923"/><text x="1230" y="1262" fill="#CBD5E1" font-size="14">Quality</text><text x="1230" y="1300" fill="#F8FAFC" font-size="32" font-weight="700">98%</text>
  </g>
  <rect x="934" y="1350" width="400" height="190" rx="12" fill="#101923"/>
  <path d="M974 1460C1028 1460 1034 1418 1082 1418H1128C1176 1418 1188 1460 1238 1460H1304" fill="none" stroke="#ECE7DE" stroke-width="2"/>
  <path d="M974 1460H1036C1072 1460 1072 1498 1108 1498H1164C1200 1498 1200 1460 1236 1460H1304" fill="none" stroke="#2563EB" stroke-width="3"/>
  <g fill="#0EA5E9"><circle cx="1082" cy="1418" r="5"/><circle cx="1108" cy="1498" r="5"/><circle cx="1238" cy="1460" r="5"/></g>
  </g>
</svg>
