<svg xmlns="http://www.w3.org/2000/svg" viewBox="0 0 280 150" role="img" aria-labelledby="title desc">
  <title id="title">McGuire Technology one-color M mark</title>
  <desc id="desc">A one-color routed M mark made from four complete pipeline strokes.</desc>
  <g fill="none" stroke="#030303" stroke-linecap="round" stroke-linejoin="round" stroke-width="14">
    <path d="M24 28H82C96 28 105 45 118 56C131 67 143 67 156 56C169 45 178 28 192 28H236"/>
    <path d="M24 52H76C92 52 103 68 118 80C131 91 144 91 158 80C173 68 184 52 200 52H236"/>
    <path d="M24 76H72C90 76 102 91 118 104C132 116 145 116 160 104C176 91 188 76 206 76H236"/>
    <path d="M24 100H68C88 100 101 115 118 126C132 136 146 136 162 126C179 115 192 100 212 100H236"/>
  </g>
  <g fill="#030303">
    <rect x="250" y="20" width="18" height="18" rx="4"/>
    <rect x="250" y="44" width="18" height="18" rx="4"/>
    <rect x="250" y="68" width="18" height="18" rx="4"/>
    <rect x="250" y="92" width="18" height="18" rx="4"/>
  </g>
</svg>
