<svg xmlns="http://www.w3.org/2000/svg" viewBox="0 0 280 150" role="img" aria-labelledby="title desc">
  <title id="title">McGuire Technology routed M mark</title>
  <desc id="desc">A premium routed data-pipeline M mark made from four complete strokes.</desc>
  <g fill="none" stroke-linecap="round" stroke-linejoin="round" stroke-width="14">
    <path d="M24 28H82C96 28 105 45 118 56C131 67 143 67 156 56C169 45 178 28 192 28H236" stroke="#2563EB"/>
    <path d="M24 52H76C92 52 103 68 118 80C131 91 144 91 158 80C173 68 184 52 200 52H236" stroke="#0EA5E9"/>
    <path d="M24 76H72C90 76 102 91 118 104C132 116 145 116 160 104C176 91 188 76 206 76H236" stroke="#A16207"/>
    <path d="M24 100H68C88 100 101 115 118 126C132 136 146 136 162 126C179 115 192 100 212 100H236" stroke="#C2410C"/>
  </g>
  <g fill="#2563EB">
    <rect x="250" y="20" width="18" height="18" rx="4"/>
  </g>
  <g fill="#0EA5E9">
    <rect x="250" y="44" width="18" height="18" rx="4"/>
  </g>
  <g fill="#A16207">
    <rect x="250" y="68" width="18" height="18" rx="4"/>
  </g>
  <g fill="#C2410C">
    <rect x="250" y="92" width="18" height="18" rx="4"/>
  </g>
</svg>
