<svg xmlns="http://www.w3.org/2000/svg" viewBox="0 0 1200 760" role="img" aria-labelledby="title desc">
  <title id="title">McGuire Technology wall signage example</title>
  <desc id="desc">A premium wall signage mockup using the McGuire Technology routed M lockup.</desc>
  <defs>
    <linearGradient id="wall" x1="0" x2="1" y1="0" y2="1">
      <stop offset="0" stop-color="#111111"/>
      <stop offset=".55" stop-color="#2B2B2B"/>
      <stop offset="1" stop-color="#0A0A0A"/>
    </linearGradient>
    <linearGradient id="floor" x1="0" x2="0" y1="0" y2="1">
      <stop offset="0" stop-color="#3A332D"/>
      <stop offset="1" stop-color="#181512"/>
    </linearGradient>
    <filter id="sign-shadow" x="-40%" y="-40%" width="180%" height="180%">
      <feDropShadow dx="10" dy="15" stdDeviation="10" flood-color="#000000" flood-opacity=".55"/>
    </filter>
  </defs>
  <rect width="1200" height="760" fill="#ECE7DE"/>
  <rect x="36" y="36" width="1128" height="548" rx="18" fill="url(#wall)"/>
  <path d="M36 584H1164V724H36z" fill="url(#floor)"/>
  <g opacity=".18" stroke="#F4F0EA" stroke-width="1">
    <path d="M36 196H1164M36 356H1164M306 36V584M576 36V584M846 36V584"/>
  </g>
  <g opacity=".42">
    <rect x="890" y="74" width="214" height="396" rx="12" fill="#0A0A0A" stroke="#64748B"/>
    <path d="M910 98H1084M910 154H1084M910 210H1084M910 266H1084M910 322H1084M910 378H1084M966 74V470M1024 74V470" stroke="#64748B" stroke-width="1"/>
    <rect x="932" y="504" width="138" height="22" rx="11" fill="#0F766E" opacity=".35"/>
  </g>
  <g transform="translate(120 244) scale(1.25)" filter="url(#sign-shadow)">
    <g fill="none" stroke-linecap="round" stroke-linejoin="round" stroke-width="14">
      <path d="M24 28H82C96 28 105 45 118 56C131 67 143 67 156 56C169 45 178 28 192 28H236" stroke="#2563EB"/>
      <path d="M24 52H76C92 52 103 68 118 80C131 91 144 91 158 80C173 68 184 52 200 52H236" stroke="#0EA5E9"/>
      <path d="M24 76H72C90 76 102 91 118 104C132 116 145 116 160 104C176 91 188 76 206 76H236" stroke="#64748B"/>
      <path d="M24 100H68C88 100 101 115 118 126C132 136 146 136 162 126C179 115 192 100 212 100H236" stroke="#334155"/>
    </g>
    <rect x="250" y="20" width="18" height="18" rx="4" fill="#2563EB"/>
    <rect x="250" y="44" width="18" height="18" rx="4" fill="#0EA5E9"/>
    <rect x="250" y="68" width="18" height="18" rx="4" fill="#64748B"/>
    <rect x="250" y="92" width="18" height="18" rx="4" fill="#334155"/>
  </g>
  <text x="498" y="352" fill="#F5F3EE" filter="url(#sign-shadow)" font-family="Ubuntu Sans, Ubuntu, Arial, sans-serif" font-size="74" font-weight="700" letter-spacing="-1">McGuire</text>
  <text x="498" y="430" fill="#F5F3EE" filter="url(#sign-shadow)" font-family="Ubuntu Sans, Ubuntu, Arial, sans-serif" font-size="74" font-weight="700" letter-spacing="-1">Technology</text>
  <rect x="36" y="584" width="1128" height="12" fill="#D97706" opacity=".22"/>
  <text x="66" y="682" fill="#A7B0BD" font-family="Ubuntu Mono, monospace" font-size="18">application example / architectural signage</text>
</svg>
