<svg xmlns="http://www.w3.org/2000/svg" viewBox="0 0 1200 760" role="img" aria-labelledby="title desc">
  <title id="title">McGuire Technology dashboard application example</title>
  <desc id="desc">A dark operational dashboard mockup using the McGuire Technology routed M identity.</desc>
  <defs>
    <linearGradient id="shell" x1="0" x2="1" y1="0" y2="1">
      <stop offset="0" stop-color="#030303"/>
      <stop offset=".62" stop-color="#07111D"/>
      <stop offset="1" stop-color="#0A0A0A"/>
    </linearGradient>
    <filter id="shadow" x="-20%" y="-20%" width="140%" height="140%">
      <feDropShadow dx="0" dy="18" stdDeviation="18" flood-color="#000000" flood-opacity=".35"/>
    </filter>
  </defs>
  <rect width="1200" height="760" rx="26" fill="#ECE7DE"/>
  <rect x="36" y="36" width="1128" height="688" rx="22" fill="url(#shell)" filter="url(#shadow)"/>
  <rect x="36" y="36" width="244" height="688" rx="22" fill="#03080D"/>
  <path d="M280 36V724" stroke="#1F2937"/>

  <g transform="translate(70 70) scale(.32)">
    <g fill="none" stroke-linecap="round" stroke-linejoin="round" stroke-width="16">
      <path d="M24 28H82C96 28 105 45 118 56C131 67 143 67 156 56C169 45 178 28 192 28H236" stroke="#2563EB"/>
      <path d="M24 52H76C92 52 103 68 118 80C131 91 144 91 158 80C173 68 184 52 200 52H236" stroke="#0EA5E9"/>
      <path d="M24 76H72C90 76 102 91 118 104C132 116 145 116 160 104C176 91 188 76 206 76H236" stroke="#64748B"/>
      <path d="M24 100H68C88 100 101 115 118 126C132 136 146 136 162 126C179 115 192 100 212 100H236" stroke="#334155"/>
    </g>
  </g>
  <text x="164" y="94" fill="#F5F3EE" font-family="Ubuntu Sans, Ubuntu, Arial, sans-serif" font-size="25" font-weight="700">McGuire</text>
  <text x="164" y="122" fill="#F5F3EE" font-family="Ubuntu Sans, Ubuntu, Arial, sans-serif" font-size="25" font-weight="700">Technology</text>

  <g font-family="Ubuntu Sans, Ubuntu, Arial, sans-serif" font-size="17" fill="#D9E2EC">
    <rect x="62" y="168" width="182" height="46" rx="8" fill="#17345B"/>
    <text x="102" y="197" fill="#F8FAFC" font-weight="700">Overview</text>
    <text x="102" y="254">Systems</text>
    <text x="102" y="302">Pipelines</text>
    <text x="102" y="350">Data Quality</text>
    <text x="102" y="398">Observability</text>
    <text x="102" y="446">Governance</text>
    <text x="102" y="494">Settings</text>
  </g>
  <g fill="none" stroke="#64748B" stroke-width="2">
    <circle cx="78" cy="190" r="9"/><path d="M73 190h10M78 185v10"/>
    <rect x="70" y="240" width="16" height="16" rx="3"/>
    <path d="M70 288h16M70 296h16M70 304h16"/>
    <circle cx="78" cy="344" r="8"/><path d="M78 336v16M70 344h16"/>
    <path d="M70 392h16l-8 14z"/>
    <path d="M70 440h16v16H70z"/>
    <circle cx="78" cy="488" r="8"/><path d="M78 480v16M70 488h16"/>
  </g>

  <text x="324" y="94" fill="#F5F3EE" font-family="Ubuntu Sans, Ubuntu, Arial, sans-serif" font-size="31" font-weight="700">Operational Overview</text>
  <text x="324" y="126" fill="#94A3B8" font-family="Ubuntu Mono, monospace" font-size="16">prod / central systems / live status</text>
  <g transform="translate(1042 79)" fill="none" stroke="#CBD5E1" stroke-width="3">
    <circle cx="10" cy="10" r="9"/><path d="M17 17l10 10"/>
    <path d="M55 3v25M43 15h24"/>
  </g>
  <circle cx="1122" cy="91" r="22" fill="#17345B"/><text x="1109" y="98" fill="#F8FAFC" font-family="Ubuntu Sans, Ubuntu, Arial, sans-serif" font-size="17" font-weight="700">AD</text>

  <g font-family="Ubuntu Sans, Ubuntu, Arial, sans-serif">
    <g>
      <rect x="324" y="168" width="184" height="112" rx="12" fill="#101923" stroke="#1F2937"/>
      <text x="346" y="201" fill="#CBD5E1" font-size="15">Sources</text>
      <text x="346" y="247" fill="#F8FAFC" font-size="38" font-weight="700">126</text>
      <circle cx="352" cy="263" r="5" fill="#22C55E"/><text x="366" y="268" fill="#CBD5E1" font-size="14">Online</text>
    </g>
    <g>
      <rect x="532" y="168" width="184" height="112" rx="12" fill="#101923" stroke="#1F2937"/>
      <text x="554" y="201" fill="#CBD5E1" font-size="15">Pipelines</text>
      <text x="554" y="247" fill="#F8FAFC" font-size="38" font-weight="700">23</text>
      <circle cx="560" cy="263" r="5" fill="#22C55E"/><text x="574" y="268" fill="#CBD5E1" font-size="14">Running</text>
    </g>
    <g>
      <rect x="740" y="168" width="184" height="112" rx="12" fill="#101923" stroke="#1F2937"/>
      <text x="762" y="201" fill="#CBD5E1" font-size="15">Data Quality</text>
      <text x="762" y="247" fill="#F8FAFC" font-size="38" font-weight="700">98.6%</text>
      <circle cx="768" cy="263" r="5" fill="#22C55E"/><text x="782" y="268" fill="#CBD5E1" font-size="14">Healthy</text>
    </g>
    <g>
      <rect x="948" y="168" width="184" height="112" rx="12" fill="#101923" stroke="#1F2937"/>
      <text x="970" y="201" fill="#CBD5E1" font-size="15">Alerts</text>
      <text x="970" y="247" fill="#F8FAFC" font-size="38" font-weight="700">5</text>
      <circle cx="976" cy="263" r="5" fill="#D97706"/><text x="990" y="268" fill="#CBD5E1" font-size="14">Review</text>
    </g>
  </g>

  <rect x="324" y="312" width="808" height="188" rx="14" fill="#101923" stroke="#1F2937"/>
  <text x="350" y="352" fill="#F5F3EE" font-family="Ubuntu Sans, Ubuntu, Arial, sans-serif" font-size="20" font-weight="700">Data Flow</text>
  <g fill="none" stroke-linecap="round" stroke-linejoin="round">
    <rect x="370" y="398" width="70" height="46" rx="6" fill="#0F3D75" stroke="#2563EB"/>
    <path d="M390 414h30M390 426h30" stroke="#0EA5E9" stroke-width="4"/>
    <rect x="560" y="372" width="72" height="46" rx="6" fill="#0F3D75" stroke="#2563EB"/>
    <rect x="560" y="446" width="72" height="46" rx="6" fill="#0F3D75" stroke="#2563EB"/>
    <rect x="760" y="410" width="74" height="46" rx="6" fill="#0F3D75" stroke="#2563EB"/>
    <path d="M440 421C490 421 498 395 560 395M440 421C490 421 498 469 560 469M632 395C692 395 702 433 760 433M632 469C692 469 702 433 760 433" stroke="#64748B" stroke-width="2"/>
    <path d="M832 433H958C990 433 990 386 1022 386H1084M832 433H958C990 433 990 433 1022 433H1084M832 433H958C990 433 990 480 1022 480H1084" stroke="#2563EB" stroke-width="3"/>
    <g fill="#0EA5E9" stroke="none">
      <circle cx="515" cy="395" r="5"/><circle cx="515" cy="469" r="5"/><circle cx="710" cy="433" r="5"/>
      <rect x="1086" y="379" width="12" height="12" rx="3"/><rect x="1086" y="427" width="12" height="12" rx="3"/><rect x="1086" y="474" width="12" height="12" rx="3"/>
    </g>
  </g>

  <rect x="324" y="528" width="808" height="152" rx="14" fill="#101923" stroke="#1F2937"/>
  <text x="350" y="568" fill="#F5F3EE" font-family="Ubuntu Sans, Ubuntu, Arial, sans-serif" font-size="20" font-weight="700">Data Quality Trend</text>
  <g stroke="#243244" stroke-width="1">
    <path d="M368 616H1084M368 650H1084"/>
  </g>
  <path d="M384 646L438 618L492 635L546 604L600 622L654 588L708 608L762 600L816 636L870 622L924 590L978 606L1032 575L1084 586" fill="none" stroke="#0EA5E9" stroke-width="4" stroke-linecap="round" stroke-linejoin="round"/>
  <g fill="#2563EB">
    <circle cx="438" cy="618" r="5"/><circle cx="546" cy="604" r="5"/><circle cx="654" cy="588" r="5"/><circle cx="816" cy="636" r="5"/><circle cx="924" cy="590" r="5"/><circle cx="1032" cy="575" r="5"/>
  </g>
</svg>
